<svg xmlns="http://www.w3.org/2000/svg" viewBox="0 0 800 600" preserveAspectRatio="xMidYMid slice">
<defs>
<radialGradient id="bg" cx=".5" cy=".36" r=".85"><stop offset="0" stop-color="#232c44"/><stop offset=".55" stop-color="#0d111c"/><stop offset="1" stop-color="#050609"/></radialGradient>
<linearGradient id="floor" x1="0" y1="0" x2="0" y2="1"><stop offset="0" stop-color="#fff" stop-opacity=".07"/><stop offset="1" stop-color="#fff" stop-opacity="0"/></linearGradient>
<filter id="bl"><feGaussianBlur stdDeviation="12"/></filter><filter id="bs"><feGaussianBlur stdDeviation="3"/></filter>
<pattern id="weave" width="6" height="6" patternUnits="userSpaceOnUse"><path d="M0,6 L6,0" stroke="#000" stroke-opacity=".12" stroke-width="1"/></pattern></defs>
<rect width="800" height="600" fill="url(#bg)"/><rect y="470" width="800" height="130" fill="url(#floor)"/><g transform="translate(400 330) scale(1.15) translate(-400 -330)"><ellipse cx="400" cy="522" rx="270" ry="24" fill="#000" fill-opacity=".6" filter="url(#bl)"/><g><rect x="190" y="446" width="420" height="72" rx="16" fill="#b9bfcc"/>
<rect x="190" y="438" width="420" height="68" rx="16" fill="#e9ecf2"/><rect x="190" y="438" width="420" height="68" rx="16" fill="url(#weave)"/>
<rect x="190" y="438" width="420" height="16" rx="8" fill="#fff" fill-opacity=".14"/>
<path d="M602,444 q10,32 0,60" fill="none" stroke="#000" stroke-opacity=".18" stroke-width="3"/></g><g><rect x="202" y="376" width="420" height="72" rx="16" fill="#16217a"/>
<rect x="202" y="368" width="420" height="68" rx="16" fill="#2a3fbf"/><rect x="202" y="368" width="420" height="68" rx="16" fill="url(#weave)"/>
<rect x="202" y="368" width="420" height="16" rx="8" fill="#fff" fill-opacity=".14"/>
<path d="M614,374 q10,32 0,60" fill="none" stroke="#000" stroke-opacity=".18" stroke-width="3"/></g><g><rect x="190" y="306" width="420" height="72" rx="16" fill="#9aa1b3"/>
<rect x="190" y="298" width="420" height="68" rx="16" fill="#cfd4de"/><rect x="190" y="298" width="420" height="68" rx="16" fill="url(#weave)"/>
<rect x="190" y="298" width="420" height="16" rx="8" fill="#fff" fill-opacity=".14"/>
<path d="M602,304 q10,32 0,60" fill="none" stroke="#000" stroke-opacity=".18" stroke-width="3"/></g><g><rect x="202" y="236" width="420" height="72" rx="16" fill="#0c0e16"/>
<rect x="202" y="228" width="420" height="68" rx="16" fill="#1c2030"/><rect x="202" y="228" width="420" height="68" rx="16" fill="url(#weave)"/>
<rect x="202" y="228" width="420" height="16" rx="8" fill="#fff" fill-opacity=".14"/>
<path d="M614,234 q10,32 0,60" fill="none" stroke="#000" stroke-opacity=".18" stroke-width="3"/></g></g></svg>